<svg xmlns="http://www.w3.org/2000/svg" width="720" height="520" viewBox="0 0 720 520">
  <rect width="100%" height="100%" fill="white"/>
  <g stroke="#dddddd" stroke-width="1">
    <path d="M120 40 V460 M170 40 V460 M220 40 V460 M270 40 V460 M320 40 V460 M370 40 V460 M420 40 V460 M470 40 V460 M520 40 V460 M570 40 V460 M620 40 V460"/>
    <path d="M70 410 H650 M70 360 H650 M70 310 H650 M70 260 H650 M70 210 H650 M70 160 H650 M70 110 H650 M70 60 H650"/>
  </g>
  <g stroke="black" stroke-width="2.5">
    <path d="M70 260 H650"/>
    <path d="M270 460 V40"/>
  </g>
  <g fill="black" font-family="serif" font-size="20">
    <text x="638" y="284">x</text>
    <text x="246" y="56">y</text>
    <text x="250" y="284">O</text>
  </g>
  <g fill="none" stroke="black" stroke-width="4">
    <!-- y=(x-2)^2-3 ; origin (270,260), scale 50; sample points x=-1..5 -->
    <path d="M220 -40 C245 60, 270 135, 295 185 C320 235, 345 260, 370 260 C395 260, 420 235, 445 185 C470 135, 495 60, 520 -40" />
    <path d="M370 45 V450" stroke-dasharray="8 8" stroke-width="2.5"/>
  </g>
  <g fill="black" stroke="black">
    <circle cx="370" cy="410" r="6"/>
  </g>
  <g fill="black" font-family="serif" font-size="22">
    <text x="382" y="405">V(2,-3)</text>
    <text x="390" y="82">x=2</text>
  </g>
</svg>