<svg xmlns="http://www.w3.org/2000/svg" width="720" height="520" viewBox="0 0 720 520">
  <rect width="100%" height="100%" fill="white"/>
  <style>
    .axis{stroke:#111;stroke-width:3;fill:none;stroke-linecap:round}
    .line{stroke:#111;stroke-width:4;fill:none;stroke-linecap:round;stroke-linejoin:round}
    .thin{stroke:#111;stroke-width:2;fill:none;stroke-linecap:round;stroke-linejoin:round}
    .bar{stroke:#111;stroke-width:3;fill:#f7f7f7}
    .txt{font-family:serif;font-size:24px;fill:#111}
    .small{font-family:serif;font-size:19px;fill:#111}
    .grid{stroke:#ddd;stroke-width:1;fill:none}
  </style>
  
  <path class="axis" d="M100 430 H650"/>
  <path class="axis" d="M100 430 V70"/>
  <g class="grid">
    <path d="M100 370 H650 M100 310 H650 M100 250 H650 M100 190 H650 M100 130 H650"/>
  </g>
  <rect class="bar" x="145" y="370" width="80" height="60"/>
  <rect class="bar" x="245" y="310" width="80" height="120"/>
  <rect class="bar" x="345" y="190" width="80" height="240"/>
  <rect class="bar" x="445" y="250" width="80" height="180"/>
  <rect class="bar" x="545" y="370" width="80" height="60"/>
  <text class="small" x="143" y="462">50-59</text>
  <text class="small" x="243" y="462">60-69</text>
  <text class="small" x="343" y="462">70-79</text>
  <text class="small" x="443" y="462">80-89</text>
  <text class="small" x="543" y="462">90-99</text>
  <text class="small" x="62" y="375">2</text><text class="small" x="62" y="315">4</text>
  <text class="small" x="62" y="255">6</text><text class="small" x="62" y="195">8</text>
  <text class="small" x="62" y="135">10</text>
  <text class="txt" x="235" y="45">Math Quiz Score Distribution</text>

</svg>