<svg xmlns="http://www.w3.org/2000/svg" width="760" height="520" viewBox="0 0 760 520">
<rect width="100%" height="100%" fill="white"/>
<style>
.axis{stroke:#111;stroke-width:3;fill:none}
.line{stroke:#111;stroke-width:4;fill:none;stroke-linecap:round;stroke-linejoin:round}
.thin{stroke:#111;stroke-width:2;fill:none;stroke-linecap:round;stroke-linejoin:round}
.dash{stroke:#111;stroke-width:2;fill:none;stroke-dasharray:8 8}
.bar{stroke:#111;stroke-width:3;fill:#f7f7f7}
.txt{font-family:serif;font-size:24px;fill:#111}
.small{font-family:serif;font-size:18px;fill:#111}
.grid{stroke:#ddd;stroke-width:1;fill:none}
</style>
<path class="axis" d="M380 80 V440"/><path class="axis" d="M130 440 H630"/>
<g><rect class="bar" x="280" y="350" width="100" height="28"/><rect class="bar" x="380" y="350" width="90" height="28"/>
<rect class="bar" x="230" y="290" width="150" height="28"/><rect class="bar" x="380" y="290" width="140" height="28"/>
<rect class="bar" x="255" y="230" width="125" height="28"/><rect class="bar" x="380" y="230" width="120" height="28"/>
<rect class="bar" x="315" y="170" width="65" height="28"/><rect class="bar" x="380" y="170" width="75" height="28"/>
<rect class="bar" x="340" y="110" width="40" height="28"/><rect class="bar" x="380" y="110" width="55" height="28"/></g>
<text class="small" x="315" y="395">0-14</text><text class="small" x="315" y="335">15-29</text><text class="small" x="315" y="275">30-44</text><text class="small" x="315" y="215">45-64</text><text class="small" x="315" y="155">65+</text>
<text class="txt" x="230" y="55">人口金字塔</text>
</svg>