<svg xmlns="http://www.w3.org/2000/svg" width="760" height="520" viewBox="0 0 760 520">
<rect width="100%" height="100%" fill="white"/>
<style>
.axis{stroke:#111;stroke-width:3;fill:none}
.line{stroke:#111;stroke-width:4;fill:none;stroke-linecap:round;stroke-linejoin:round}
.thin{stroke:#111;stroke-width:2;fill:none;stroke-linecap:round;stroke-linejoin:round}
.dash{stroke:#111;stroke-width:2;fill:none;stroke-dasharray:8 8}
.bar{stroke:#111;stroke-width:3;fill:#f7f7f7}
.txt{font-family:serif;font-size:24px;fill:#111}
.small{font-family:serif;font-size:18px;fill:#111}
.grid{stroke:#ddd;stroke-width:1;fill:none}
</style>
<path class="thin" d="M140 420 C210 330,260 300,360 310 C460 320,540 300,630 210"/>
<path class="thin" d="M190 390 C250 325,290 300,365 300 C440 300,495 280,570 220"/>
<path class="thin" d="M240 360 C290 320,320 295,370 290 C420 285,470 270,520 230"/>
<path class="thin" d="M295 330 C330 305,350 292,375 285 C405 278,435 260,470 235"/>
<text class="small" x="135" y="445">100m</text><text class="small" x="190" y="410">200m</text><text class="small" x="240" y="375">300m</text><text class="small" x="300" y="345">400m</text>
<circle cx="475" cy="235" r="6" fill="#111"/><text class="txt" x="490" y="240">甲</text>
<circle cx="155" cy="415" r="6" fill="#111"/><text class="txt" x="105" y="420">乙</text>
<text class="txt" x="220" y="65">等高線地形圖</text>
</svg>